<svg width="170" height="67" viewBox="0 0 170 67" fill="none" xmlns="http://www.w3.org/2000/svg">
<rect x="105.669" y="0.5" width="63.8305" height="65.9915" rx="3.1017" stroke="black" stroke-opacity="0.25"/>
<rect x="0.5" y="0.5" width="87.6017" height="65.9915" rx="3.1017" stroke="black" stroke-opacity="0.25"/>
<path d="M24.2437 56.9231C23.5377 56.9231 22.9259 56.7752 22.4082 56.4794C21.8973 56.1836 21.504 55.7634 21.2283 55.2188C20.9527 54.6675 20.8149 54.0153 20.8149 53.2624C20.8149 52.5094 20.9527 51.8606 21.2283 51.316C21.504 50.7714 21.8973 50.3546 22.4082 50.0655C22.9192 49.7697 23.531 49.6218 24.2437 49.6218C24.7277 49.6218 25.1782 49.6957 25.595 49.8436C26.0186 49.9915 26.3716 50.2067 26.6539 50.489L26.2707 51.3362C25.9682 51.0672 25.6555 50.8756 25.3328 50.7613C25.0101 50.6403 24.6571 50.5798 24.2739 50.5798C23.5344 50.5798 22.9595 50.8118 22.5494 51.2757C22.146 51.7328 21.9443 52.3951 21.9443 53.2624C21.9443 54.1296 22.146 54.7952 22.5494 55.2591C22.9528 55.723 23.5277 55.955 24.2739 55.955C24.6571 55.955 25.0101 55.8978 25.3328 55.7835C25.6555 55.6625 25.9682 55.4675 26.2707 55.1986L26.6539 56.0457C26.3716 56.3281 26.0186 56.5466 25.595 56.7012C25.1782 56.8492 24.7277 56.9231 24.2437 56.9231ZM29.1575 56.913C28.6532 56.913 28.2129 56.8088 27.8364 56.6004C27.4666 56.3853 27.1809 56.0861 26.9792 55.7029C26.7775 55.3129 26.6766 54.8591 26.6766 54.3414C26.6766 53.817 26.7775 53.3632 26.9792 52.98C27.1809 52.5968 27.4666 52.3009 27.8364 52.0925C28.2129 51.8774 28.6532 51.7698 29.1575 51.7698C29.6617 51.7698 30.0987 51.8774 30.4685 52.0925C30.8383 52.3009 31.124 52.5968 31.3257 52.98C31.5341 53.3632 31.6383 53.817 31.6383 54.3414C31.6383 54.8591 31.5341 55.3129 31.3257 55.7029C31.124 56.0861 30.8383 56.3853 30.4685 56.6004C30.0987 56.8088 29.6617 56.913 29.1575 56.913ZM29.1474 56.0659C29.5911 56.0659 29.9407 55.9146 30.1962 55.6121C30.4517 55.3096 30.5794 54.8826 30.5794 54.3313C30.5794 53.78 30.4517 53.3565 30.1962 53.0607C29.9407 52.7648 29.5945 52.6169 29.1575 52.6169C28.7205 52.6169 28.3709 52.7648 28.1087 53.0607C27.8532 53.3565 27.7254 53.78 27.7254 54.3313C27.7254 54.8826 27.8532 55.3096 28.1087 55.6121C28.3709 55.9146 28.7171 56.0659 29.1474 56.0659ZM32.3126 56.8223V51.8606H33.311V52.9195H33.2505C33.3447 52.6842 33.469 52.4825 33.6237 52.3144C33.785 52.1396 33.9766 52.0051 34.1985 51.911C34.4204 51.8169 34.6624 51.7698 34.9246 51.7698C35.3414 51.7698 35.6843 51.8707 35.9532 52.0723C36.2222 52.274 36.4003 52.5631 36.4877 52.9396H36.4071C36.5348 52.59 36.7499 52.3077 37.0525 52.0925C37.355 51.8774 37.7181 51.7698 38.1416 51.7698C38.5181 51.7698 38.8341 51.8438 39.0896 51.9917C39.3451 52.1396 39.5367 52.3614 39.6644 52.6573C39.7922 52.9531 39.856 53.3296 39.856 53.7868V56.8223H38.7971V53.8372C38.7971 53.4271 38.7265 53.1245 38.5854 52.9296C38.4442 52.7346 38.1988 52.6371 37.8492 52.6371C37.5937 52.6371 37.3718 52.6976 37.1836 52.8186C36.9953 52.9329 36.8508 53.0976 36.7499 53.3128C36.6491 53.5279 36.5987 53.7767 36.5987 54.059V56.8223H35.5599V53.8372C35.5599 53.4338 35.4826 53.1346 35.328 52.9396C35.1801 52.7379 34.9414 52.6371 34.612 52.6371C34.3565 52.6371 34.1346 52.701 33.9464 52.8287C33.7581 52.9497 33.6136 53.1178 33.5127 53.3329C33.4119 53.5414 33.3615 53.78 33.3615 54.049V56.8223H32.3126ZM40.8173 56.8223V51.8606H41.8157V52.9195H41.7552C41.8493 52.6842 41.9737 52.4825 42.1283 52.3144C42.2897 52.1396 42.4813 52.0051 42.7032 51.911C42.925 51.8169 43.1671 51.7698 43.4293 51.7698C43.8461 51.7698 44.189 51.8707 44.4579 52.0723C44.7268 52.274 44.905 52.5631 44.9924 52.9396H44.9117C45.0395 52.59 45.2546 52.3077 45.5572 52.0925C45.8597 51.8774 46.2227 51.7698 46.6463 51.7698C47.0228 51.7698 47.3388 51.8438 47.5943 51.9917C47.8498 52.1396 48.0414 52.3614 48.1691 52.6573C48.2968 52.9531 48.3607 53.3296 48.3607 53.7868V56.8223H47.3018V53.8372C47.3018 53.4271 47.2312 53.1245 47.09 52.9296C46.9488 52.7346 46.7035 52.6371 46.3538 52.6371C46.0984 52.6371 45.8765 52.6976 45.6883 52.8186C45.5 52.9329 45.3555 53.0976 45.2546 53.3128C45.1538 53.5279 45.1033 53.7767 45.1033 54.059V56.8223H44.0646V53.8372C44.0646 53.4338 43.9873 53.1346 43.8327 52.9396C43.6848 52.7379 43.4461 52.6371 43.1166 52.6371C42.8612 52.6371 42.6393 52.701 42.4511 52.8287C42.2628 52.9497 42.1183 53.1178 42.0174 53.3329C41.9166 53.5414 41.8661 53.78 41.8661 54.049V56.8223H40.8173ZM50.9356 56.913C50.5859 56.913 50.27 56.8458 49.9876 56.7113C49.7119 56.5769 49.4934 56.3953 49.3321 56.1668C49.1774 55.9314 49.1001 55.6692 49.1001 55.3801C49.1001 55.0104 49.1976 54.7179 49.3926 54.5028C49.5943 54.2876 49.9136 54.133 50.3506 54.0389C50.7876 53.938 51.3625 53.8876 52.0751 53.8876H52.66V54.5532H52.1054C51.7423 54.5532 51.4364 54.5666 51.1877 54.5935C50.9389 54.6137 50.7372 54.654 50.5826 54.7146C50.428 54.7751 50.317 54.8557 50.2498 54.9566C50.1826 55.0507 50.1489 55.1751 50.1489 55.3297C50.1489 55.5785 50.2397 55.7768 50.4212 55.9247C50.6028 56.0726 50.8482 56.1466 51.1574 56.1466C51.4129 56.1466 51.6415 56.0861 51.8432 55.9651C52.0449 55.844 52.2062 55.6827 52.3272 55.481C52.4483 55.2726 52.5088 55.0406 52.5088 54.7851V53.6456C52.5088 53.2691 52.418 53.0001 52.2365 52.8388C52.055 52.6774 51.7659 52.5968 51.3692 52.5968C51.0868 52.5968 50.8011 52.6371 50.512 52.7178C50.2229 52.7985 49.9271 52.9296 49.6245 53.1111L49.3018 52.3648C49.4968 52.2371 49.7119 52.1295 49.9472 52.0421C50.1826 51.9547 50.428 51.8875 50.6834 51.8404C50.9456 51.7933 51.2011 51.7698 51.4499 51.7698C51.9003 51.7698 52.2802 51.8404 52.5895 51.9816C52.8987 52.1228 53.134 52.3379 53.2954 52.627C53.4567 52.9161 53.5374 53.2926 53.5374 53.7565V56.8223H52.5794V55.7432H52.6197C52.5458 55.9718 52.4315 56.1768 52.2768 56.3584C52.1289 56.5332 51.9407 56.671 51.7121 56.7718C51.4902 56.866 51.2314 56.913 50.9356 56.913ZM54.458 56.8223V51.8606H55.4665V52.9094H55.406C55.5606 52.5396 55.796 52.2572 56.1119 52.0623C56.4347 51.8673 56.7977 51.7698 57.2011 51.7698C57.6045 51.7698 57.9373 51.8438 58.1995 51.9917C58.4684 52.1329 58.6701 52.3547 58.8046 52.6573C58.939 52.9598 59.0063 53.3363 59.0063 53.7868V56.8223H57.9474V53.8473C57.9474 53.5783 57.9104 53.3565 57.8364 53.1817C57.7692 53.0001 57.6583 52.8657 57.5036 52.7783C57.349 52.6842 57.1507 52.6371 56.9086 52.6371C56.633 52.6371 56.391 52.6976 56.1825 52.8186C55.9741 52.9396 55.8094 53.1077 55.6884 53.3229C55.5741 53.5313 55.5169 53.7733 55.5169 54.049V56.8223H54.458ZM61.8657 56.913C61.422 56.913 61.032 56.8088 60.6959 56.6004C60.3597 56.3853 60.1009 56.0861 59.9193 55.7029C59.7378 55.3129 59.647 54.8591 59.647 54.3414C59.647 53.817 59.7378 53.3632 59.9193 52.98C60.1009 52.5968 60.3563 52.3009 60.6858 52.0925C61.0219 51.8774 61.4152 51.7698 61.8657 51.7698C62.2892 51.7698 62.6523 51.874 62.9548 52.0824C63.2641 52.2841 63.4792 52.5564 63.6003 52.8993H63.5398V49.7125H64.5987V56.8223H63.6003V55.7331H63.6406C63.5196 56.1029 63.3011 56.392 62.9851 56.6004C62.6691 56.8088 62.296 56.913 61.8657 56.913ZM62.1279 56.0861C62.5716 56.0861 62.9212 55.9348 63.1767 55.6323C63.4322 55.323 63.5599 54.8927 63.5599 54.3414C63.5599 53.7834 63.4322 53.3565 63.1767 53.0607C62.9212 52.7581 62.5716 52.6068 62.1279 52.6068C61.6976 52.6068 61.3514 52.7581 61.0892 53.0607C60.8337 53.3565 60.7059 53.7834 60.7059 54.3414C60.7059 54.8927 60.8337 55.323 61.0892 55.6323C61.3514 55.9348 61.6976 56.0861 62.1279 56.0861Z" fill="black"/>
<g clip-path="url(#clip0_130_332)">
<path d="M69.4761 12.2122V15.4974H68.0621C67.6025 15.4974 67.1828 15.6076 66.8029 15.828C66.4231 16.0484 66.1194 16.3462 65.892 16.7214C65.6645 17.0965 65.5508 17.5162 65.5508 17.9805C65.5508 18.4448 65.6645 18.8681 65.892 19.2503C66.1194 19.6325 66.4231 19.9362 66.8029 20.1613C67.1828 20.3864 67.6025 20.4989 68.0621 20.4989C68.5264 20.4989 68.9485 20.3864 69.3283 20.1613C69.7082 19.9362 70.0107 19.6325 70.2358 19.2503C70.4609 18.8681 70.5735 18.4448 70.5735 17.9805V16.5736H73.8164V17.9805C73.8164 18.4448 73.9301 18.8681 74.1575 19.2503C74.385 19.6325 74.6887 19.9362 75.0685 20.1613C75.4484 20.3864 75.8681 20.4989 76.3277 20.4989C76.792 20.4989 77.2141 20.3864 77.594 20.1613C77.9738 19.9362 78.2763 19.6325 78.5014 19.2503C78.7265 18.8681 78.8391 18.4448 78.8391 17.9805C78.8391 17.5162 78.7265 17.0965 78.5014 16.7214C78.2763 16.3462 77.9738 16.0484 77.594 15.828C77.2141 15.6076 76.792 15.4974 76.3277 15.4974H74.9137V12.2122H76.3277C76.792 12.2122 77.2141 12.102 77.594 11.8816C77.9738 11.6612 78.2763 11.3634 78.5014 10.9882C78.7265 10.613 78.8391 10.1933 78.8391 9.72902C78.8391 9.26474 78.7265 8.84149 78.5014 8.45928C78.2763 8.07707 77.9738 7.77224 77.594 7.54479C77.2141 7.31734 76.792 7.20361 76.3277 7.20361C75.8681 7.20361 75.4484 7.31734 75.0685 7.54479C74.6887 7.77224 74.385 8.07707 74.1575 8.45928C73.9301 8.84149 73.8164 9.26474 73.8164 9.72902V11.1359H70.5735V9.72902C70.5735 9.26474 70.4609 8.84149 70.2358 8.45928C70.0107 8.07707 69.7082 7.77224 69.3283 7.54479C68.9485 7.31734 68.5264 7.20361 68.0621 7.20361C67.6025 7.20361 67.1828 7.31734 66.8029 7.54479C66.4231 7.77224 66.1194 8.07707 65.892 8.45928C65.6645 8.84149 65.5508 9.26474 65.5508 9.72902C65.5508 10.1933 65.6645 10.613 65.892 10.9882C66.1194 11.3634 66.4231 11.6612 66.8029 11.8816C67.1828 12.102 67.6025 12.2122 68.0621 12.2122H69.4761ZM68.0621 11.15C67.8042 11.15 67.5685 11.0855 67.3551 10.9566C67.1418 10.8276 66.9706 10.6552 66.8416 10.4395C66.7127 10.2238 66.6482 9.98695 66.6482 9.72902C66.6482 9.46639 66.7127 9.22722 66.8416 9.0115C66.9706 8.79577 67.1418 8.62342 67.3551 8.49445C67.5685 8.36549 67.8042 8.30101 68.0621 8.30101C68.3201 8.30101 68.5557 8.36549 68.7691 8.49445C68.9825 8.62342 69.1536 8.79577 69.2826 9.0115C69.4116 9.22722 69.4761 9.46639 69.4761 9.72902V11.15H68.0621ZM76.3277 11.15H74.9137V9.72902C74.9137 9.46639 74.9782 9.22722 75.1072 9.0115C75.2362 8.79577 75.4074 8.62342 75.6208 8.49445C75.8341 8.36549 76.0698 8.30101 76.3277 8.30101C76.5856 8.30101 76.8225 8.36549 77.0382 8.49445C77.254 8.62342 77.4251 8.79577 77.5518 9.0115C77.6784 9.22722 77.7417 9.46639 77.7417 9.72902C77.7417 9.98695 77.6784 10.2238 77.5518 10.4395C77.4251 10.6552 77.254 10.8276 77.0382 10.9566C76.8225 11.0855 76.5856 11.15 76.3277 11.15ZM70.5735 15.5114V12.1981H73.8164V15.5114H70.5735ZM68.0621 16.5525H69.4761V17.9735C69.4761 18.2315 69.4116 18.4683 69.2826 18.684C69.1536 18.8997 68.9825 19.0721 68.7691 19.2011C68.5557 19.33 68.3201 19.3945 68.0621 19.3945C67.8042 19.3945 67.5685 19.33 67.3551 19.2011C67.1418 19.0721 66.9706 18.8997 66.8416 18.684C66.7127 18.4683 66.6482 18.2315 66.6482 17.9735C66.6482 17.7109 66.7127 17.4717 66.8416 17.256C66.9706 17.0403 67.1418 16.8691 67.3551 16.7425C67.5685 16.6158 67.8042 16.5525 68.0621 16.5525ZM76.3277 16.5525C76.5856 16.5525 76.8225 16.6158 77.0382 16.7425C77.254 16.8691 77.4251 17.0403 77.5518 17.256C77.6784 17.4717 77.7417 17.7109 77.7417 17.9735C77.7417 18.2315 77.6784 18.4683 77.5518 18.684C77.4251 18.8997 77.254 19.0721 77.0382 19.2011C76.8225 19.33 76.5856 19.3945 76.3277 19.3945C76.0698 19.3945 75.8341 19.33 75.6208 19.2011C75.4074 19.0721 75.2362 18.8997 75.1072 18.684C74.9782 18.4683 74.9137 18.2315 74.9137 17.9735V16.5525H76.3277Z" fill="black"/>
</g>
<path d="M140.426 43.1717L138.87 40.6649C138.697 40.3768 138.461 40.152 138.161 39.9907C137.861 39.8409 137.498 39.7659 137.072 39.7659L138.489 39.1954C138.847 39.1954 139.158 39.2358 139.423 39.3165C139.688 39.3971 139.919 39.5297 140.115 39.7141C140.322 39.8985 140.524 40.1636 140.72 40.5093L141.93 42.4283L140.426 43.1717ZM137.089 39.7659C136.225 39.7659 135.441 39.6219 134.738 39.3337C134.035 39.0456 133.43 38.6249 132.923 38.0717C132.427 37.5185 132.047 36.8615 131.782 36.1009C131.517 35.3287 131.384 34.4642 131.384 33.5076C131.384 32.551 131.517 31.6924 131.782 30.9317C132.047 30.1595 132.427 29.5026 132.923 28.9609C133.418 28.4076 134.018 27.987 134.721 27.6988C135.424 27.4107 136.213 27.2666 137.089 27.2666C137.954 27.2666 138.737 27.4107 139.44 27.6988C140.143 27.987 140.743 28.4019 141.238 28.9436C141.745 29.4853 142.132 30.1422 142.397 30.9144C142.662 31.6751 142.794 32.5337 142.794 33.4904C142.794 34.447 142.662 35.3114 142.397 36.0836C142.132 36.8558 141.745 37.5185 141.238 38.0717C140.743 38.6249 140.143 39.0456 139.44 39.3337C138.737 39.6219 137.954 39.7659 137.089 39.7659ZM137.089 38.21C137.896 38.21 138.582 38.0256 139.146 37.6568C139.723 37.288 140.161 36.752 140.46 36.049C140.772 35.3459 140.927 34.4988 140.927 33.5076C140.927 32.5165 140.777 31.6693 140.478 30.9663C140.178 30.2632 139.74 29.7331 139.164 29.3758C138.599 29.007 137.907 28.8226 137.089 28.8226C136.282 28.8226 135.591 29.007 135.015 29.3758C134.45 29.7331 134.012 30.2632 133.701 30.9663C133.401 31.6693 133.251 32.5165 133.251 33.5076C133.251 34.4873 133.401 35.3344 133.701 36.049C134.012 36.752 134.45 37.288 135.015 37.6568C135.591 38.0256 136.282 38.21 137.089 38.21Z" fill="black"/>
<defs>
<clipPath id="clip0_130_332">
<rect width="13.2883" height="13.3024" fill="white" transform="translate(65.5508 7.20361)"/>
</clipPath>
</defs>
</svg>
