<svg width="1010" height="758" viewBox="0 0 1010 758" fill="none" xmlns="http://www.w3.org/2000/svg">
<line x1="929.48" y1="758" x2="929.48" stroke="black" stroke-opacity="0.25" stroke-width="0.286038"/>
<line x1="788.963" y1="702.229" x2="788.963" y2="55.777" stroke="black" stroke-opacity="0.25" stroke-width="0.286038"/>
<line x1="672.046" y1="758" x2="672.046" stroke="black" stroke-opacity="0.25" stroke-width="0.286038"/>
<line x1="501.853" y1="758" x2="501.853" stroke="black" stroke-opacity="0.25" stroke-width="0.286038"/>
<line x1="328.8" y1="758" x2="328.8" stroke="black" stroke-opacity="0.25" stroke-width="0.286038"/>
<line x1="214.761" y1="702.224" x2="214.761" y2="55.7772" stroke="black" stroke-opacity="0.25" stroke-width="0.286038"/>
<line x1="71.3665" y1="758" x2="71.3665" stroke="black" stroke-opacity="0.25" stroke-width="0.286038"/>
<line y1="-0.143019" x2="1001.13" y2="-0.143019" transform="matrix(-1 0 0 1 1001.13 55.7773)" stroke="black" stroke-opacity="0.25" stroke-width="0.286038"/>
<line y1="-0.143019" x2="1001.13" y2="-0.143019" transform="matrix(-1 0 0 1 1001.13 702.223)" stroke="black" stroke-opacity="0.25" stroke-width="0.286038"/>
<line y1="-0.143019" x2="1001.13" y2="-0.143019" transform="matrix(-1 0 0 1 1009.71 244.562)" stroke="black" stroke-opacity="0.25" stroke-width="0.286038"/>
<line y1="-0.143019" x2="1001.13" y2="-0.143019" transform="matrix(-1 0 0 1 1001.13 379)" stroke="black" stroke-opacity="0.25" stroke-width="0.286038"/>
<line y1="-0.143019" x2="1001.13" y2="-0.143019" transform="matrix(-1 0 0 1 1001.13 473.392)" stroke="black" stroke-opacity="0.25" stroke-width="0.286038"/>
<line x1="71.5093" y1="130.362" x2="929.623" y2="130.362" stroke="black" stroke-opacity="0.25" stroke-width="0.286038"/>
<line x1="71.5095" y1="587.665" x2="929.624" y2="587.665" stroke="black" stroke-opacity="0.25" stroke-width="0.286038"/>
<line x1="5.63463" y1="752.165" x2="992.465" y2="8.46703" stroke="black" stroke-opacity="0.25" stroke-width="0.286038"/>
<line y1="-0.143019" x2="1235.69" y2="-0.143019" transform="matrix(-0.798609 -0.60185 -0.60185 0.798609 995.411 750.849)" stroke="black" stroke-opacity="0.25" stroke-width="0.286038"/>
</svg>
