<svg width="146" height="20" viewBox="0 0 146 20" fill="none" xmlns="http://www.w3.org/2000/svg">
<g clip-path="url(#clip0_243_324)">
<path d="M135.961 19.9219C137.322 19.9219 138.603 19.6615 139.804 19.1406C141.005 18.6198 142.064 17.9004 142.982 16.9824C143.9 16.0645 144.62 15.0049 145.141 13.8037C145.661 12.6026 145.922 11.3216 145.922 9.96094C145.922 8.60026 145.661 7.31933 145.141 6.11816C144.62 4.91699 143.9 3.85742 142.982 2.93945C142.064 2.02148 141.003 1.30208 139.799 0.78125C138.594 0.260417 137.312 0 135.951 0C134.59 0 133.31 0.260417 132.108 0.78125C130.907 1.30208 129.849 2.02148 128.935 2.93945C128.02 3.85742 127.302 4.91699 126.781 6.11816C126.26 7.31933 126 8.60026 126 9.96094C126 11.3216 126.26 12.6026 126.781 13.8037C127.302 15.0049 128.021 16.0645 128.939 16.9824C129.857 17.9004 130.917 18.6198 132.118 19.1406C133.319 19.6615 134.6 19.9219 135.961 19.9219ZM135.961 18.2617C134.809 18.2617 133.731 18.0469 132.729 17.6172C131.726 17.1875 130.845 16.5935 130.087 15.835C129.328 15.0765 128.736 14.196 128.31 13.1934C127.883 12.1908 127.67 11.1133 127.67 9.96094C127.67 8.80859 127.883 7.73112 128.31 6.72852C128.736 5.72591 129.327 4.84375 130.082 4.08203C130.837 3.32031 131.716 2.72623 132.719 2.2998C133.721 1.87337 134.799 1.66016 135.951 1.66016C137.104 1.66016 138.181 1.87337 139.184 2.2998C140.186 2.72623 141.068 3.32031 141.83 4.08203C142.592 4.84375 143.188 5.72591 143.617 6.72852C144.047 7.73112 144.262 8.80859 144.262 9.96094C144.262 11.1133 144.049 12.1908 143.622 13.1934C143.196 14.196 142.603 15.0765 141.845 15.835C141.086 16.5935 140.204 17.1875 139.198 17.6172C138.192 18.0469 137.113 18.2617 135.961 18.2617ZM139.008 12.373C139.223 12.373 139.395 12.2998 139.525 12.1533C139.656 12.0068 139.721 11.8197 139.721 11.5918V6.99219C139.721 6.69922 139.647 6.49088 139.501 6.36719C139.354 6.24349 139.158 6.18164 138.91 6.18164H134.271C134.044 6.18164 133.861 6.24674 133.725 6.37695C133.588 6.50716 133.52 6.67969 133.52 6.89453C133.52 7.11588 133.59 7.29167 133.729 7.42188C133.869 7.55209 134.057 7.61719 134.291 7.61719H136.068L137.514 7.46094L136 8.87695L132.396 12.4805C132.24 12.6367 132.162 12.8092 132.162 12.998C132.162 13.2194 132.227 13.3968 132.357 13.5303C132.488 13.6638 132.66 13.7305 132.875 13.7305C133.096 13.7305 133.282 13.6556 133.432 13.5059L137.035 9.90234L138.432 8.4082L138.285 9.92188V11.6113C138.285 11.8457 138.352 12.0313 138.485 12.168C138.619 12.3047 138.793 12.373 139.008 12.373Z" fill="black"/>
</g>
<path d="M0.984 14V5.54H1.932L7.08 12.332H6.78V5.54H7.932V14H7.008L1.86 7.208H2.136V14H0.984ZM13.034 14.108C12.442 14.108 11.93 13.984 11.498 13.736C11.074 13.488 10.742 13.136 10.502 12.68C10.262 12.224 10.142 11.688 10.142 11.072C10.142 10.448 10.262 9.912 10.502 9.464C10.742 9.008 11.074 8.656 11.498 8.408C11.93 8.16 12.442 8.036 13.034 8.036C13.618 8.036 14.122 8.16 14.546 8.408C14.978 8.656 15.314 9.008 15.554 9.464C15.794 9.92 15.914 10.456 15.914 11.072C15.914 11.688 15.794 12.224 15.554 12.68C15.314 13.136 14.978 13.488 14.546 13.736C14.122 13.984 13.618 14.108 13.034 14.108ZM13.022 13.172C13.526 13.172 13.93 12.992 14.234 12.632C14.538 12.272 14.69 11.752 14.69 11.072C14.69 10.384 14.538 9.864 14.234 9.512C13.93 9.16 13.526 8.984 13.022 8.984C12.526 8.984 12.126 9.16 11.822 9.512C11.518 9.864 11.366 10.384 11.366 11.072C11.366 11.752 11.518 12.272 11.822 12.632C12.126 12.992 12.526 13.172 13.022 13.172ZM20.4325 14.108C19.7045 14.108 19.1565 13.92 18.7885 13.544C18.4285 13.168 18.2485 12.624 18.2485 11.912V9.08H17.1085V8.144H18.2485V6.38H19.4605V8.144H21.2725V9.08H19.4605V11.816C19.4605 12.24 19.5485 12.56 19.7245 12.776C19.9085 12.992 20.2045 13.1 20.6125 13.1C20.7325 13.1 20.8525 13.084 20.9725 13.052C21.1005 13.02 21.2245 12.988 21.3445 12.956L21.5365 13.868C21.4165 13.94 21.2485 13.996 21.0325 14.036C20.8245 14.084 20.6245 14.108 20.4325 14.108ZM22.9313 6.788V5.528H24.3473V6.788H22.9313ZM23.0393 14V8.144H24.2513V14H23.0393ZM29.2213 14.108C28.6293 14.108 28.1173 13.984 27.6853 13.736C27.2613 13.488 26.9293 13.136 26.6893 12.68C26.4493 12.224 26.3293 11.688 26.3293 11.072C26.3293 10.448 26.4493 9.912 26.6893 9.464C26.9293 9.008 27.2613 8.656 27.6853 8.408C28.1173 8.16 28.6293 8.036 29.2213 8.036C29.8053 8.036 30.3093 8.16 30.7333 8.408C31.1653 8.656 31.5013 9.008 31.7413 9.464C31.9813 9.92 32.1013 10.456 32.1013 11.072C32.1013 11.688 31.9813 12.224 31.7413 12.68C31.5013 13.136 31.1653 13.488 30.7333 13.736C30.3093 13.984 29.8053 14.108 29.2213 14.108ZM29.2093 13.172C29.7133 13.172 30.1173 12.992 30.4213 12.632C30.7253 12.272 30.8773 11.752 30.8773 11.072C30.8773 10.384 30.7253 9.864 30.4213 9.512C30.1173 9.16 29.7133 8.984 29.2093 8.984C28.7133 8.984 28.3133 9.16 28.0093 9.512C27.7053 9.864 27.5533 10.384 27.5533 11.072C27.5533 11.752 27.7053 12.272 28.0093 12.632C28.3133 12.992 28.7133 13.172 29.2093 13.172ZM34.1825 14V8.144H35.3585V9.392H35.2265C35.4025 8.944 35.6785 8.608 36.0545 8.384C36.4305 8.152 36.8625 8.036 37.3505 8.036C37.8145 8.036 38.1985 8.124 38.5025 8.3C38.8145 8.468 39.0465 8.728 39.1985 9.08C39.3505 9.424 39.4265 9.86 39.4265 10.388V14H38.2145V10.46C38.2145 10.124 38.1705 9.852 38.0825 9.644C37.9945 9.428 37.8625 9.268 37.6865 9.164C37.5105 9.06 37.2825 9.008 37.0025 9.008C36.6825 9.008 36.3985 9.076 36.1505 9.212C35.9105 9.348 35.7225 9.544 35.5865 9.8C35.4585 10.056 35.3945 10.352 35.3945 10.688V14H34.1825ZM45.8209 14V5.54H47.0689V14H45.8209ZM49.6081 14V8.144H50.7841V9.392H50.6521C50.8281 8.944 51.1041 8.608 51.4801 8.384C51.8561 8.152 52.2881 8.036 52.7761 8.036C53.2401 8.036 53.6241 8.124 53.9281 8.3C54.2401 8.468 54.4721 8.728 54.6241 9.08C54.7761 9.424 54.8521 9.86 54.8521 10.388V14H53.6401V10.46C53.6401 10.124 53.5961 9.852 53.5081 9.644C53.4201 9.428 53.2881 9.268 53.1121 9.164C52.9361 9.06 52.7081 9.008 52.4281 9.008C52.1081 9.008 51.8241 9.076 51.5761 9.212C51.3361 9.348 51.1481 9.544 51.0121 9.8C50.8841 10.056 50.8201 10.352 50.8201 10.688V14H49.6081ZM59.7382 14.108C59.0102 14.108 58.4622 13.92 58.0942 13.544C57.7342 13.168 57.5542 12.624 57.5542 11.912V9.08H56.4142V8.144H57.5542V6.38H58.7662V8.144H60.5782V9.08H58.7662V11.816C58.7662 12.24 58.8542 12.56 59.0302 12.776C59.2142 12.992 59.5102 13.1 59.9182 13.1C60.0382 13.1 60.1582 13.084 60.2782 13.052C60.4062 13.02 60.5302 12.988 60.6502 12.956L60.8422 13.868C60.7222 13.94 60.5542 13.996 60.3382 14.036C60.1302 14.084 59.9302 14.108 59.7382 14.108ZM65.0344 14.108C64.3944 14.108 63.8424 13.988 63.3784 13.748C62.9224 13.5 62.5664 13.152 62.3104 12.704C62.0624 12.248 61.9384 11.708 61.9384 11.084C61.9384 10.476 62.0624 9.944 62.3104 9.488C62.5584 9.032 62.8984 8.676 63.3304 8.42C63.7624 8.164 64.2544 8.036 64.8064 8.036C65.3504 8.036 65.8144 8.156 66.1984 8.396C66.5904 8.628 66.8904 8.96 67.0984 9.392C67.3064 9.824 67.4104 10.34 67.4104 10.94V11.348H62.8984V10.604H66.5944L66.3904 10.772C66.3904 10.172 66.2584 9.708 65.9944 9.38C65.7304 9.052 65.3504 8.888 64.8544 8.888C64.4784 8.888 64.1584 8.976 63.8944 9.152C63.6384 9.328 63.4424 9.572 63.3064 9.884C63.1704 10.196 63.1024 10.56 63.1024 10.976V11.048C63.1024 11.512 63.1744 11.904 63.3184 12.224C63.4704 12.536 63.6904 12.772 63.9784 12.932C64.2664 13.092 64.6224 13.172 65.0464 13.172C65.3824 13.172 65.7104 13.12 66.0304 13.016C66.3584 12.904 66.6664 12.732 66.9544 12.5L67.3144 13.34C67.0504 13.58 66.7104 13.768 66.2944 13.904C65.8784 14.04 65.4584 14.108 65.0344 14.108ZM72.1037 16.268C71.5757 16.268 71.0837 16.204 70.6277 16.076C70.1717 15.948 69.7677 15.756 69.4157 15.5L69.7877 14.636C70.0197 14.788 70.2557 14.916 70.4957 15.02C70.7437 15.132 70.9917 15.212 71.2397 15.26C71.4957 15.308 71.7557 15.332 72.0197 15.332C72.5797 15.332 72.9997 15.188 73.2797 14.9C73.5597 14.62 73.6997 14.204 73.6997 13.652V12.428H73.8077C73.6877 12.868 73.4357 13.216 73.0517 13.472C72.6677 13.728 72.2237 13.856 71.7197 13.856C71.1917 13.856 70.7317 13.736 70.3397 13.496C69.9477 13.248 69.6437 12.908 69.4277 12.476C69.2117 12.036 69.1037 11.524 69.1037 10.94C69.1037 10.356 69.2117 9.848 69.4277 9.416C69.6437 8.984 69.9477 8.648 70.3397 8.408C70.7317 8.16 71.1917 8.036 71.7197 8.036C72.2317 8.036 72.6757 8.164 73.0517 8.42C73.4357 8.676 73.6837 9.024 73.7957 9.464H73.6997V8.144H74.8757V13.508C74.8757 14.116 74.7717 14.624 74.5637 15.032C74.3557 15.448 74.0437 15.756 73.6277 15.956C73.2197 16.164 72.7117 16.268 72.1037 16.268ZM72.0077 12.908C72.5277 12.908 72.9357 12.732 73.2317 12.38C73.5357 12.028 73.6877 11.548 73.6877 10.94C73.6877 10.34 73.5357 9.864 73.2317 9.512C72.9357 9.16 72.5277 8.984 72.0077 8.984C71.4957 8.984 71.0877 9.16 70.7837 9.512C70.4797 9.864 70.3277 10.34 70.3277 10.94C70.3277 11.548 70.4797 12.028 70.7837 12.38C71.0877 12.732 71.4957 12.908 72.0077 12.908ZM77.2967 14V8.144H78.4727V9.548H78.3527C78.4807 9.068 78.7087 8.704 79.0367 8.456C79.3727 8.208 79.8167 8.064 80.3687 8.024L80.7647 8L80.8487 9.032L80.1167 9.104C79.5967 9.152 79.2007 9.316 78.9287 9.596C78.6567 9.876 78.5207 10.26 78.5207 10.748V14H77.2967ZM84.3067 14.108C83.8987 14.108 83.5307 14.028 83.2027 13.868C82.8827 13.708 82.6307 13.492 82.4467 13.22C82.2627 12.948 82.1707 12.64 82.1707 12.296C82.1707 11.864 82.2787 11.524 82.4947 11.276C82.7187 11.02 83.0827 10.84 83.5867 10.736C84.0987 10.624 84.7867 10.568 85.6507 10.568H86.2147V11.312H85.6627C85.2307 11.312 84.8667 11.328 84.5707 11.36C84.2747 11.392 84.0387 11.444 83.8627 11.516C83.6867 11.58 83.5587 11.672 83.4787 11.792C83.4067 11.912 83.3707 12.056 83.3707 12.224C83.3707 12.528 83.4747 12.776 83.6827 12.968C83.8907 13.152 84.1787 13.244 84.5467 13.244C84.8427 13.244 85.1027 13.176 85.3267 13.04C85.5507 12.896 85.7267 12.704 85.8547 12.464C85.9907 12.224 86.0587 11.948 86.0587 11.636V10.256C86.0587 9.8 85.9627 9.472 85.7707 9.272C85.5787 9.072 85.2627 8.972 84.8227 8.972C84.4867 8.972 84.1507 9.024 83.8147 9.128C83.4787 9.224 83.1347 9.38 82.7827 9.596L82.4107 8.744C82.6187 8.6 82.8587 8.476 83.1307 8.372C83.4027 8.268 83.6867 8.188 83.9827 8.132C84.2867 8.068 84.5787 8.036 84.8587 8.036C85.3947 8.036 85.8347 8.12 86.1787 8.288C86.5307 8.456 86.7907 8.712 86.9587 9.056C87.1267 9.4 87.2107 9.844 87.2107 10.388V14H86.0707V12.692H86.1787C86.1147 12.988 85.9947 13.244 85.8187 13.46C85.6507 13.668 85.4387 13.828 85.1827 13.94C84.9267 14.052 84.6347 14.108 84.3067 14.108ZM92.096 14.108C91.368 14.108 90.82 13.92 90.452 13.544C90.092 13.168 89.912 12.624 89.912 11.912V9.08H88.772V8.144H89.912V6.38H91.124V8.144H92.936V9.08H91.124V11.816C91.124 12.24 91.212 12.56 91.388 12.776C91.572 12.992 91.868 13.1 92.276 13.1C92.396 13.1 92.516 13.084 92.636 13.052C92.764 13.02 92.888 12.988 93.008 12.956L93.2 13.868C93.08 13.94 92.912 13.996 92.696 14.036C92.488 14.084 92.288 14.108 92.096 14.108ZM94.5948 6.788V5.528H96.0108V6.788H94.5948ZM94.7028 14V8.144H95.9148V14H94.7028ZM100.885 14.108C100.293 14.108 99.7808 13.984 99.3488 13.736C98.9248 13.488 98.5928 13.136 98.3528 12.68C98.1128 12.224 97.9928 11.688 97.9928 11.072C97.9928 10.448 98.1128 9.912 98.3528 9.464C98.5928 9.008 98.9248 8.656 99.3488 8.408C99.7808 8.16 100.293 8.036 100.885 8.036C101.469 8.036 101.973 8.16 102.397 8.408C102.829 8.656 103.165 9.008 103.405 9.464C103.645 9.92 103.765 10.456 103.765 11.072C103.765 11.688 103.645 12.224 103.405 12.68C103.165 13.136 102.829 13.488 102.397 13.736C101.973 13.984 101.469 14.108 100.885 14.108ZM100.873 13.172C101.377 13.172 101.781 12.992 102.085 12.632C102.389 12.272 102.541 11.752 102.541 11.072C102.541 10.384 102.389 9.864 102.085 9.512C101.781 9.16 101.377 8.984 100.873 8.984C100.377 8.984 99.9768 9.16 99.6728 9.512C99.3688 9.864 99.2168 10.384 99.2168 11.072C99.2168 11.752 99.3688 12.272 99.6728 12.632C99.9768 12.992 100.377 13.172 100.873 13.172ZM105.846 14V8.144H107.022V9.392H106.89C107.066 8.944 107.342 8.608 107.718 8.384C108.094 8.152 108.526 8.036 109.014 8.036C109.478 8.036 109.862 8.124 110.166 8.3C110.478 8.468 110.71 8.728 110.862 9.08C111.014 9.424 111.09 9.86 111.09 10.388V14H109.878V10.46C109.878 10.124 109.834 9.852 109.746 9.644C109.658 9.428 109.526 9.268 109.35 9.164C109.174 9.06 108.946 9.008 108.666 9.008C108.346 9.008 108.062 9.076 107.814 9.212C107.574 9.348 107.386 9.544 107.25 9.8C107.122 10.056 107.058 10.352 107.058 10.688V14H105.846ZM115.532 14.108C115.22 14.108 114.916 14.08 114.62 14.024C114.324 13.968 114.052 13.888 113.804 13.784C113.556 13.68 113.336 13.552 113.144 13.4L113.492 12.584C113.692 12.72 113.904 12.84 114.128 12.944C114.352 13.04 114.584 13.112 114.824 13.16C115.072 13.208 115.312 13.232 115.544 13.232C115.968 13.232 116.288 13.156 116.504 13.004C116.72 12.852 116.828 12.648 116.828 12.392C116.828 12.184 116.756 12.024 116.612 11.912C116.468 11.792 116.252 11.7 115.964 11.636L114.824 11.408C114.328 11.304 113.952 11.12 113.696 10.856C113.44 10.592 113.312 10.256 113.312 9.848C113.312 9.48 113.412 9.16 113.612 8.888C113.812 8.616 114.092 8.408 114.452 8.264C114.812 8.112 115.228 8.036 115.7 8.036C115.972 8.036 116.236 8.064 116.492 8.12C116.748 8.176 116.988 8.256 117.212 8.36C117.444 8.464 117.64 8.596 117.8 8.756L117.452 9.572C117.3 9.436 117.124 9.32 116.924 9.224C116.732 9.128 116.532 9.056 116.324 9.008C116.116 8.952 115.908 8.924 115.7 8.924C115.276 8.924 114.956 9.004 114.74 9.164C114.532 9.316 114.428 9.524 114.428 9.788C114.428 9.988 114.492 10.152 114.62 10.28C114.748 10.408 114.948 10.5 115.22 10.556L116.36 10.784C116.88 10.888 117.272 11.064 117.536 11.312C117.808 11.56 117.944 11.896 117.944 12.32C117.944 12.688 117.844 13.008 117.644 13.28C117.444 13.552 117.16 13.76 116.792 13.904C116.432 14.04 116.012 14.108 115.532 14.108Z" fill="black"/>
<defs>
<clipPath id="clip0_243_324">
<rect width="19.9219" height="19.9316" fill="white" transform="translate(126)"/>
</clipPath>
</defs>
</svg>
