<svg width="48" height="106" viewBox="0 0 48 106" fill="none" xmlns="http://www.w3.org/2000/svg">
<g clip-path="url(#clip0_203_505)">
<path d="M12.6118 86.6021H35.1012C35.6396 86.6021 36.064 86.4467 36.3744 86.1361C36.6851 85.8254 36.8404 85.4113 36.8404 84.8936V79.9237C36.8404 78.4327 37.208 77.0038 37.9432 75.6369C38.6784 74.2702 39.5844 72.8776 40.6612 71.4589C41.738 70.0405 42.82 68.5081 43.9072 66.8617C44.9944 65.2156 45.9056 63.357 46.6407 61.2861C47.3759 59.2153 47.7435 56.8339 47.7435 54.1418C47.7435 50.6214 47.1741 47.4116 46.0351 44.5125C44.896 41.6133 43.2755 39.1283 41.1736 37.0575C39.0717 34.9866 36.5557 33.3869 33.6256 32.2583C30.6953 31.1297 27.4389 30.5654 23.8564 30.5654C20.2946 30.5654 17.0486 31.1297 14.1184 32.2583C11.1881 33.3869 8.67208 34.9866 6.57019 37.0575C4.4683 39.1283 2.84788 41.6133 1.70892 44.5125C0.569965 47.4116 0.000488281 50.6214 0.000488281 54.1418C0.000488281 56.8339 0.36806 59.2153 1.1032 61.2861C1.83835 63.357 2.74951 65.2156 3.83668 66.8617C4.92388 68.5081 6.00589 70.0405 7.08271 71.4589C8.15956 72.8776 9.06554 74.2702 9.80066 75.6369C10.5358 77.0038 10.9034 78.4327 10.9034 79.9237V84.8936C10.9034 85.4113 11.0587 85.8254 11.3693 86.1361C11.6799 86.4467 12.0941 86.6021 12.6118 86.6021ZM15.5317 84.4588C15.5317 83.9618 15.5317 83.4647 15.5317 82.9677C15.5317 82.4706 15.5317 81.9737 15.5317 81.4768C15.5317 80.9798 15.5317 80.4827 15.5317 79.9857C15.5317 78.1633 15.1693 76.4756 14.4445 74.9225C13.7197 73.3694 12.8189 71.8474 11.7421 70.3565C10.6652 68.8653 9.58841 67.3225 8.51159 65.7281C7.43476 64.1335 6.52878 62.3991 5.79363 60.5251C5.05849 58.651 4.69091 56.5336 4.69091 54.1729C4.69091 50.3833 5.48818 47.0699 7.08271 44.2329C8.67726 41.3959 10.9138 39.1904 13.7922 37.6166C16.6707 36.0428 20.0254 35.2559 23.8564 35.2559C27.7082 35.2559 31.068 36.0428 33.936 37.6166C36.8043 39.1904 39.0408 41.3959 40.6456 44.2329C42.2506 47.0699 43.0531 50.3833 43.0531 54.1729C43.0531 56.5336 42.6855 58.651 41.9504 60.5251C41.2152 62.3991 40.3092 64.1335 39.2324 65.7281C38.1556 67.3225 37.0788 68.8653 36.002 70.3565C34.9249 71.8474 34.0241 73.3694 33.2995 74.9225C32.5748 76.4756 32.2124 78.1633 32.2124 79.9857C32.2124 80.7313 32.2124 81.4767 32.2124 82.2221C32.2124 82.9677 32.2124 83.7132 32.2124 84.4588L34.6972 81.9117H13.0467L15.5317 84.4588ZM23.8875 102.475C26.0204 102.475 27.7858 102.019 29.1836 101.108C30.5814 100.197 31.3528 98.9958 31.4978 97.5048H16.2772C16.4222 98.9958 17.1884 100.197 18.5758 101.108C19.9633 102.019 21.7338 102.475 23.8875 102.475ZM13.8233 94.9888H33.9828C34.7697 94.9888 35.4428 94.7042 36.002 94.1348C36.5609 93.5652 36.8404 92.8766 36.8404 92.0689C36.8404 91.2614 36.5609 90.5728 36.002 90.0033C35.4428 89.4339 34.7697 89.1492 33.9828 89.1492H13.8233C13.0156 89.1492 12.3323 89.4339 11.7731 90.0033C11.214 90.5728 10.9345 91.2614 10.9345 92.0689C10.9345 92.8766 11.214 93.5652 11.7731 94.1348C12.3323 94.7042 13.0156 94.9888 13.8233 94.9888Z" fill="black"/>
<g clip-path="url(#clip1_203_505)">
<path d="M9.35547 52.1478C9.35547 53.5104 9.64587 54.6999 10.2267 55.7163C10.8075 56.7327 11.6228 57.522 12.6727 58.0843C13.7226 58.6464 14.9438 58.9275 16.3362 58.9275C17.7063 58.9275 18.9088 58.6744 19.9438 58.168C20.9788 57.6616 21.783 56.9524 22.3564 56.0402C22.9297 55.1281 23.2164 54.0652 23.2164 52.8515C23.2164 52.092 23.0898 51.4106 22.8366 50.8075C22.5835 50.2044 22.2335 49.7129 21.7867 49.3332C21.5782 49.1619 21.4014 49.0428 21.2562 48.9757C21.111 48.9087 20.9416 48.8752 20.748 48.8752C20.4874 48.8752 20.2771 48.9478 20.117 49.093C19.9569 49.2382 19.8768 49.4225 19.8768 49.6459C19.8768 49.8321 19.9103 49.9828 19.9773 50.0983C20.0444 50.2137 20.1412 50.3235 20.2677 50.4278C20.3943 50.532 20.5432 50.6623 20.7145 50.8187C20.9528 51.0495 21.1352 51.3343 21.2619 51.6731C21.3884 52.0119 21.4517 52.3935 21.4517 52.818C21.4517 53.6817 21.2395 54.4375 20.815 55.0853C20.3906 55.7331 19.7968 56.2376 19.0335 56.5987C18.2703 56.9599 17.3824 57.1405 16.3697 57.1405C15.3272 57.1405 14.4151 56.932 13.6333 56.515C12.8514 56.098 12.2427 55.5134 11.8071 54.7614C11.3715 54.0093 11.1537 53.1344 11.1537 52.1367C11.1537 51.2729 11.3585 50.4613 11.768 49.7017C12.1775 48.9422 12.7397 48.3317 13.4545 47.87L12.561 46.3175C11.8983 46.727 11.3268 47.2371 10.8466 47.8477C10.3663 48.4583 9.9977 49.1303 9.7408 49.8637C9.48391 50.5971 9.35547 51.3585 9.35547 52.1478ZM12.3711 46.3287C12.3711 47.1626 12.5536 47.8998 12.9184 48.5402C13.2833 49.1805 13.7989 49.6831 14.4654 50.048C15.1318 50.4129 15.9229 50.5953 16.8388 50.5953C17.0771 50.5953 17.2856 50.5078 17.4643 50.3328C17.643 50.1578 17.7323 49.9475 17.7323 49.7017C17.7323 49.456 17.643 49.2438 17.4643 49.0651C17.2856 48.8864 17.0771 48.797 16.8388 48.797C16.2878 48.797 15.8131 48.6909 15.4147 48.4787C15.0164 48.2665 14.7092 47.9742 14.4933 47.6019C14.2773 47.2296 14.1694 46.8052 14.1694 46.3287C14.1694 45.8 14.3034 45.3327 14.5715 44.9269C14.8395 44.5211 15.2025 44.2028 15.6605 43.972C16.1184 43.7411 16.6415 43.6257 17.2297 43.6257C17.6318 43.6257 18.0469 43.6909 18.4751 43.8212C18.9032 43.9515 19.3184 44.1544 19.7205 44.4299L20.7704 42.9667C20.2119 42.5795 19.6311 42.2929 19.028 42.1067C18.4248 41.9206 17.8291 41.8275 17.2409 41.8275C16.3399 41.8275 15.5208 42.0192 14.7837 42.4027C14.0465 42.7862 13.4601 43.3148 13.0245 43.9887C12.5889 44.6626 12.3711 45.4426 12.3711 46.3287ZM18.3243 46.0271C18.3094 46.3175 18.3895 46.552 18.5644 46.7307C18.7394 46.9095 18.9535 46.9988 19.2067 46.9988C19.4524 46.9988 19.659 46.9206 19.8266 46.7643C19.9941 46.6079 20.0853 46.3882 20.1002 46.1053C20.13 45.3979 20.3087 44.7668 20.6363 44.2121C20.964 43.6574 21.407 43.2218 21.9655 42.9053C22.5239 42.5889 23.1643 42.4306 23.8866 42.4306C24.5419 42.4306 25.1338 42.5889 25.6624 42.9053C26.1911 43.2218 26.5672 43.6369 26.7905 44.1507C26.8352 44.2326 26.8892 44.2791 26.9524 44.2903C27.0158 44.3015 27.1033 44.2921 27.2149 44.2624C27.4011 44.2102 27.5947 44.1711 27.7957 44.1451C27.9968 44.119 28.1978 44.106 28.3989 44.106C29.0691 44.1134 29.7001 44.2773 30.2921 44.5974C30.884 44.9176 31.3661 45.37 31.7385 45.9545C32.1108 46.539 32.2969 47.2334 32.2969 48.0375C32.2969 48.9087 32.1182 49.6385 31.7608 50.2267C31.4034 50.8149 30.9455 51.3176 30.387 51.7345C29.8285 52.1515 29.2365 52.5406 28.6111 52.9017C27.9856 53.2628 27.3937 53.65 26.8352 54.0633C26.2768 54.4765 25.8188 54.968 25.4614 55.5377C25.104 56.1073 24.9253 56.8203 24.9253 57.6765C24.9253 58.4882 25.1208 59.19 25.5117 59.7819C25.9026 60.3739 26.4332 60.83 27.1033 61.1501C27.7734 61.4703 28.5255 61.6304 29.3594 61.6304C29.4935 61.6304 29.6331 61.6285 29.7782 61.6249C29.9235 61.6212 30.0668 61.6155 30.2083 61.6081C30.2976 62.241 30.4857 62.8423 30.7724 63.412C31.0591 63.9815 31.4388 64.4469 31.9116 64.8081C32.3844 65.1692 32.9447 65.3498 33.5926 65.3498C34.2925 65.3498 34.9031 65.158 35.4243 64.7746C35.9456 64.3911 36.3774 63.8791 36.7199 63.2388C37.0625 62.5984 37.3193 61.8798 37.4906 61.0831C37.6618 60.2864 37.7475 59.4748 37.7475 58.6482C37.7475 57.926 37.7307 57.3043 37.6973 56.7831C37.6637 56.2618 37.6209 55.7741 37.5688 55.3199L35.7705 55.8224C35.8227 56.2692 35.8674 56.7141 35.9046 57.1572C35.9418 57.6002 35.9604 58.0898 35.9604 58.6259C35.9604 59.5269 35.8562 60.3497 35.6477 61.0943C35.4392 61.8389 35.1562 62.4346 34.7988 62.8814C34.4414 63.3281 34.0393 63.5515 33.5926 63.5515C33.1309 63.5515 32.7567 63.3765 32.4701 63.0265C32.1834 62.6766 31.9749 62.2466 31.8446 61.7365C31.7143 61.2265 31.6491 60.7257 31.6491 60.2342C31.6491 60.1822 31.6324 60.1375 31.5988 60.1002C31.5653 60.063 31.5077 60.0481 31.4258 60.0556C31.2694 60.0556 31.0963 60.0556 30.9064 60.0556C30.7165 60.0556 30.5509 60.0556 30.4093 60.0556C29.2925 60.0556 28.3989 59.8694 27.7288 59.4971C27.0586 59.1248 26.7235 58.5068 26.7235 57.643C26.7235 56.958 26.9022 56.3921 27.2596 55.9453C27.617 55.4985 28.075 55.1039 28.6335 54.7614C29.1919 54.4189 29.7839 54.0727 30.4093 53.7227C31.0348 53.3727 31.6268 52.9613 32.1852 52.4885C32.7437 52.0156 33.2017 51.4237 33.559 50.7126C33.9165 50.0015 34.0952 49.1098 34.0952 48.0375C34.0952 47.1738 33.9481 46.392 33.654 45.692C33.3599 44.9921 32.9597 44.3889 32.4533 43.8826C31.9469 43.3763 31.3661 42.9872 30.7109 42.7154C30.0557 42.4437 29.3632 42.3078 28.6335 42.3078C28.5218 42.3078 28.3915 42.3171 28.2426 42.3357C28.0936 42.3543 27.941 42.3822 27.7846 42.4194C27.3378 41.8684 26.7738 41.4347 26.0925 41.1182C25.4111 40.8018 24.6795 40.6436 23.8977 40.6436C22.8403 40.6436 21.9003 40.8725 21.0775 41.3305C20.2547 41.7884 19.6013 42.4213 19.1173 43.2292C18.6333 44.0371 18.369 44.9697 18.3243 46.0271ZM31.4593 56.984C31.4593 57.2298 31.5468 57.4364 31.7218 57.6039C31.8968 57.7715 32.1108 57.8627 32.364 57.8776C33.6372 57.9595 34.7542 57.7789 35.7147 57.3359C36.6752 56.8929 37.4217 56.2357 37.9541 55.3645C38.4865 54.4933 38.7527 53.4508 38.7527 52.2371C38.7527 51.2542 38.5331 50.3607 38.0938 49.5566C37.6544 48.7524 37.0382 48.0915 36.2452 47.574C35.4522 47.0565 34.5271 46.727 33.4697 46.5856L33.1904 48.3726C34.3222 48.3875 35.2325 48.7505 35.9213 49.4616C36.6101 50.1727 36.9545 51.0979 36.9545 52.2371C36.9545 53.4955 36.5338 54.4784 35.6923 55.1858C34.8509 55.8932 33.7415 56.1948 32.364 56.0905C32.1108 56.0682 31.8968 56.1501 31.7218 56.3362C31.5468 56.5224 31.4593 56.7383 31.4593 56.984ZM25.7183 58.4361C25.3907 58.5552 25.0389 58.6427 24.6628 58.6986C24.2868 58.7544 23.9201 58.7823 23.5627 58.7823C22.9297 58.7823 22.3136 58.7041 21.7142 58.5477C21.1147 58.3913 20.5767 58.1735 20.1002 57.8943C19.6237 57.6151 19.2625 57.2856 19.0168 56.9059L17.5313 58.1122C18.1195 58.8419 18.9219 59.4357 19.9383 59.8936C20.9546 60.3516 22.0995 60.5806 23.3728 60.5806C23.827 60.5806 24.3073 60.5452 24.8136 60.4744C25.3199 60.4037 25.8263 60.2938 26.3327 60.1449L25.7183 58.4361ZM22.133 50.5506L22.7361 52.2483C24.1434 51.9728 25.1747 51.4106 25.83 50.5618C26.4853 49.7129 26.8129 48.6332 26.8129 47.3227C26.8129 47.077 26.7235 46.8666 26.5448 46.6917C26.3661 46.5167 26.1539 46.4292 25.9082 46.4292C25.6625 46.4292 25.4521 46.5167 25.2771 46.6917C25.1021 46.8666 25.0146 47.077 25.0146 47.3227C25.0146 48.2386 24.7968 48.9683 24.3612 49.5119C23.9256 50.0554 23.1829 50.4017 22.133 50.5506Z" fill="black"/>
</g>
</g>
<path d="M24.0537 22.0479V0" stroke="black" stroke-width="2.67247"/>
<path d="M36.0799 23.5011L42.8096 2.50537" stroke="black" stroke-width="2.67247"/>
<path d="M11.9592 23.9125L6.68213 2.50537" stroke="black" stroke-width="2.67247"/>
<defs>
<clipPath id="clip0_203_505">
<rect width="47.743" height="75.2022" fill="white" transform="translate(0 30.5659)"/>
</clipPath>
<clipPath id="clip1_203_505">
<rect width="29.3972" height="24.762" fill="white" transform="translate(9.35547 40.5874)"/>
</clipPath>
</defs>
</svg>
